<svg width="16" height="16" viewBox="0 0 16 16" fill="#F1582B" stroke="#F1582B" xmlns="http://www.w3.org/2000/svg">
<path d="M9.14995 3.48135L9.1818 3.56075L9.19128 3.58438C9.37641 4.04593 9.52936 4.42726 9.68719 4.72754C9.85307 5.04313 10.0428 5.30676 10.3209 5.51355C10.599 5.72034 10.9061 5.82605 11.2561 5.89401C11.5891 5.95867 11.9983 5.99531 12.4937 6.03966L12.519 6.04193L12.7059 6.05867C13.5687 6.13594 14.1595 6.19012 14.5617 6.28504C14.9664 6.38053 14.9926 6.47525 14.9953 6.48494C14.9954 6.48521 14.9954 6.48541 14.9955 6.48555C14.9955 6.48568 14.9956 6.48588 14.9957 6.48614C14.9994 6.49549 15.0357 6.58681 14.771 6.90743C14.5079 7.22612 14.0699 7.62629 13.4292 8.20922L13.0099 8.59074L12.9941 8.60504C12.6894 8.88223 12.4374 9.11153 12.2451 9.3196C12.0432 9.53797 11.8832 9.75753 11.7783 10.0258C11.7427 10.1169 11.7131 10.2102 11.6897 10.3051C11.6208 10.5848 11.6251 10.8564 11.6641 11.1512C11.7014 11.4321 11.7752 11.7648 11.8644 12.1669L11.869 12.1876L11.927 12.4489C12.1008 13.2324 12.2215 13.7795 12.266 14.1739C12.3106 14.5691 12.2557 14.6546 12.2563 14.655C12.2564 14.655 12.2568 14.6545 12.2578 14.6534C12.2103 14.7063 12.1486 14.7443 12.0801 14.763C12.0815 14.7627 12.0822 14.7625 12.0822 14.7624C12.0821 14.7617 11.981 14.7724 11.6479 14.5552C11.3154 14.3384 10.8806 13.985 10.2585 13.4781L10.2399 13.463C9.8535 13.1481 9.53646 12.8897 9.25788 12.7034C8.96742 12.5092 8.68251 12.3676 8.35303 12.315C8.11916 12.2776 7.88084 12.2776 7.64697 12.315C7.31749 12.3676 7.03258 12.5092 6.74212 12.7034C6.46355 12.8897 6.14652 13.148 5.76009 13.4629L5.7415 13.4781C5.11936 13.985 4.68458 14.3384 4.3521 14.5552C4.01901 14.7724 3.91793 14.7617 3.91784 14.7624C3.91784 14.7625 3.91854 14.7627 3.91987 14.763C3.85136 14.7443 3.78969 14.7063 3.74223 14.6534C3.74316 14.6545 3.7436 14.655 3.74365 14.655C3.74428 14.6546 3.68938 14.5691 3.73397 14.1739C3.77848 13.7795 3.89916 13.2324 4.07299 12.4489L4.13096 12.1876L4.13556 12.1669C4.22479 11.7648 4.29861 11.4321 4.33585 11.1512C4.37495 10.8564 4.37918 10.5848 4.31026 10.3051C4.28686 10.2102 4.25726 10.1169 4.22166 10.0258C4.11681 9.75753 3.95678 9.53797 3.75492 9.3196C3.56259 9.11153 3.31054 8.88222 3.00585 8.60502L2.99015 8.59074L2.5708 8.20922C1.93007 7.62629 1.4921 7.22612 1.22899 6.90743C0.964275 6.58681 1.00059 6.49549 1.00431 6.48614C1.00442 6.48588 1.00449 6.48568 1.00454 6.48555C1.00459 6.48541 1.00464 6.48521 1.00472 6.48494C1.0074 6.47524 1.03365 6.38053 1.43831 6.28504C1.84053 6.19012 2.43131 6.13594 3.29408 6.05867L3.48097 6.04193L3.50634 6.03966C4.00165 5.99531 4.41088 5.95867 4.74389 5.89401C5.09388 5.82605 5.40098 5.72034 5.67911 5.51355C5.95724 5.30676 6.14693 5.04313 6.31281 4.72754C6.47064 4.42726 6.62359 4.04594 6.80872 3.58439L6.8182 3.56074L6.85005 3.48135C7.19824 2.61331 7.43988 2.01417 7.66268 1.62573C7.77267 1.43397 7.85787 1.33092 7.91962 1.27846C7.96795 1.2374 7.98841 1.2375 7.99898 1.23755C7.99933 1.23755 7.99967 1.23755 8 1.23755C8.00033 1.23755 8.00067 1.23755 8.00102 1.23755C8.01159 1.2375 8.03205 1.2374 8.08038 1.27846C8.14213 1.33092 8.22733 1.43397 8.33732 1.62573C8.56012 2.01417 8.80176 2.61331 9.14995 3.48135Z" fill="inherit" stroke="inherit"/>
</svg>
