<svg xmlns="http://www.w3.org/2000/svg">
    <defs>
        <symbol  id="arrow_right_long" viewBox="0 0 16 6">
            <path d="M11 3L0.5 3" />
            <path d="M15.6427 3.21437L12.2116 5.27304C11.6784 5.59297 11 5.20888 11 4.58705L11 1.41295C11 0.791117 11.6784 0.407027 12.2116 0.726958L15.6427 2.78563C15.8045 2.88273 15.8045 3.11727 15.6427 3.21437Z" />
        </symbol>
        <symbol  id="tooltip" viewBox="0 0 16 16">
            <path d="M7.5 12.5C7.5 12.7761 7.72386 13 8 13C8.27614 13 8.5 12.7761 8.5 12.5H7.5ZM8.5 6.5C8.5 6.22386 8.27614 6 8 6C7.72386 6 7.5 6.22386 7.5 6.5H8.5ZM15 8C15 11.866 11.866 15 8 15V16C12.4183 16 16 12.4183 16 8H15ZM8 15C4.13401 15 1 11.866 1 8H0C0 12.4183 3.58172 16 8 16V15ZM1 8C1 4.13401 4.13401 1 8 1V0C3.58172 0 0 3.58172 0 8H1ZM8 1C11.866 1 15 4.13401 15 8H16C16 3.58172 12.4183 0 8 0V1ZM8 3.5V4.5C8.55229 4.5 9 4.05228 9 3.5H8ZM8 3.5H7C7 4.05228 7.44772 4.5 8 4.5V3.5ZM8 3.5V2.5C7.44772 2.5 7 2.94772 7 3.5H8ZM8 3.5H9C9 2.94772 8.55229 2.5 8 2.5V3.5ZM8.5 12.5V6.5H7.5V12.5H8.5Z" />
        </symbol>
        <symbol  id="chevron_left" viewBox="0 0 16 16" fill="none">
            <path d="M11 1L4.70711 7.29289C4.31658 7.68342 4.31658 8.31658 4.70711 8.70711L11 15" stroke="inherit" stroke-linecap="round" stroke-linejoin="round"/>
        </symbol>
        <symbol  id="chevron_right" viewBox="0 0 16 16" fill="none">
            <path d="M5 1L11.2929 7.29289C11.6834 7.68342 11.6834 8.31658 11.2929 8.70711L5 15" stroke="inherit" stroke-linecap="round" stroke-linejoin="round"/>
        </symbol>
        <symbol  id="chevron_down" viewBox="0 0 12 12" fill="none">
            <path d="M11.25 3.75L6.70711 8.29289C6.31658 8.68342 5.68342 8.68342 5.29289 8.29289L0.75 3.75" stroke="inherit" stroke-linecap="round" stroke-linejoin="round"/>
        </symbol>
        <symbol  id="check" viewBox="0 0 14 12" fill="none">
            <path d="M1.375 8.21591L4.05842 10.2773C4.49053 10.6092 5.10885 10.5341 5.44893 10.1084L12.625 1.125" stroke="inherit" stroke-linecap="round"/>
        </symbol>
        <symbol  id="star" viewBox="0 0 16 16">
            <path d="M9.14995 3.48135L9.1818 3.56075L9.19128 3.58438C9.37641 4.04593 9.52936 4.42726 9.68719 4.72754C9.85307 5.04313 10.0428 5.30676 10.3209 5.51355C10.599 5.72034 10.9061 5.82605 11.2561 5.89401C11.5891 5.95867 11.9983 5.99531 12.4937 6.03966L12.519 6.04193L12.7059 6.05867C13.5687 6.13594 14.1595 6.19012 14.5617 6.28504C14.9664 6.38053 14.9926 6.47525 14.9953 6.48494C14.9954 6.48521 14.9954 6.48541 14.9955 6.48555C14.9955 6.48568 14.9956 6.48588 14.9957 6.48614C14.9994 6.49549 15.0357 6.58681 14.771 6.90743C14.5079 7.22612 14.0699 7.62629 13.4292 8.20922L13.0099 8.59074L12.9941 8.60504C12.6894 8.88223 12.4374 9.11153 12.2451 9.3196C12.0432 9.53797 11.8832 9.75753 11.7783 10.0258C11.7427 10.1169 11.7131 10.2102 11.6897 10.3051C11.6208 10.5848 11.6251 10.8564 11.6641 11.1512C11.7014 11.4321 11.7752 11.7648 11.8644 12.1669L11.869 12.1876L11.927 12.4489C12.1008 13.2324 12.2215 13.7795 12.266 14.1739C12.3106 14.5691 12.2557 14.6546 12.2563 14.655C12.2564 14.655 12.2568 14.6545 12.2578 14.6534C12.2103 14.7063 12.1486 14.7443 12.0801 14.763C12.0815 14.7627 12.0822 14.7625 12.0822 14.7624C12.0821 14.7617 11.981 14.7724 11.6479 14.5552C11.3154 14.3384 10.8806 13.985 10.2585 13.4781L10.2399 13.463C9.8535 13.1481 9.53646 12.8897 9.25788 12.7034C8.96742 12.5092 8.68251 12.3676 8.35303 12.315C8.11916 12.2776 7.88084 12.2776 7.64697 12.315C7.31749 12.3676 7.03258 12.5092 6.74212 12.7034C6.46355 12.8897 6.14652 13.148 5.76009 13.4629L5.7415 13.4781C5.11936 13.985 4.68458 14.3384 4.3521 14.5552C4.01901 14.7724 3.91793 14.7617 3.91784 14.7624C3.91784 14.7625 3.91854 14.7627 3.91987 14.763C3.85136 14.7443 3.78969 14.7063 3.74223 14.6534C3.74316 14.6545 3.7436 14.655 3.74365 14.655C3.74428 14.6546 3.68938 14.5691 3.73397 14.1739C3.77848 13.7795 3.89916 13.2324 4.07299 12.4489L4.13096 12.1876L4.13556 12.1669C4.22479 11.7648 4.29861 11.4321 4.33585 11.1512C4.37495 10.8564 4.37918 10.5848 4.31026 10.3051C4.28686 10.2102 4.25726 10.1169 4.22166 10.0258C4.11681 9.75753 3.95678 9.53797 3.75492 9.3196C3.56259 9.11153 3.31054 8.88222 3.00585 8.60502L2.99015 8.59074L2.5708 8.20922C1.93007 7.62629 1.4921 7.22612 1.22899 6.90743C0.964275 6.58681 1.00059 6.49549 1.00431 6.48614C1.00442 6.48588 1.00449 6.48568 1.00454 6.48555C1.00459 6.48541 1.00464 6.48521 1.00472 6.48494C1.0074 6.47524 1.03365 6.38053 1.43831 6.28504C1.84053 6.19012 2.43131 6.13594 3.29408 6.05867L3.48097 6.04193L3.50634 6.03966C4.00165 5.99531 4.41088 5.95867 4.74389 5.89401C5.09388 5.82605 5.40098 5.72034 5.67911 5.51355C5.95724 5.30676 6.14693 5.04313 6.31281 4.72754C6.47064 4.42726 6.62359 4.04594 6.80872 3.58439L6.8182 3.56074L6.85005 3.48135C7.19824 2.61331 7.43988 2.01417 7.66268 1.62573C7.77267 1.43397 7.85787 1.33092 7.91962 1.27846C7.96795 1.2374 7.98841 1.2375 7.99898 1.23755C7.99933 1.23755 7.99967 1.23755 8 1.23755C8.00033 1.23755 8.00067 1.23755 8.00102 1.23755C8.01159 1.2375 8.03205 1.2374 8.08038 1.27846C8.14213 1.33092 8.22733 1.43397 8.33732 1.62573C8.56012 2.01417 8.80176 2.61331 9.14995 3.48135Z" fill="inherit" stroke="inherit"/>
        </symbol>
        <symbol  id="flag" viewBox="0 0 16 16">
            <path fill-rule="evenodd" clip-rule="evenodd" d="M2.98033 8.66414e-06C2.98698 1.28365e-05 2.99354 1.69492e-05 3.00002 1.69492e-05L12.6719 1.5161e-05C13.1437 -1.69659e-05 13.5518 -4.46811e-05 13.8558 0.0431671C14.1507 0.085069 14.562 0.195047 14.7377 0.610837C14.9134 1.02663 14.7055 1.39824 14.53 1.63886C14.349 1.88699 14.0645 2.17956 13.7357 2.51778L11.5056 4.81154C11.1757 5.15092 10.9636 5.37056 10.8279 5.55313C10.7008 5.72408 10.6864 5.80401 10.6864 5.85716C10.6864 5.91031 10.7008 5.99024 10.8279 6.16119C10.9636 6.34376 11.1757 6.5634 11.5056 6.90278L13.7356 9.19652C14.0645 9.53474 14.349 9.82732 14.53 10.0755C14.7055 10.3161 14.9134 10.6877 14.7377 11.1035C14.562 11.5193 14.1507 11.6292 13.8558 11.6712C13.5518 11.7144 13.1437 11.7143 12.6719 11.7143L3.00002 11.7143V15.5C3.00002 15.7762 2.77616 16 2.50002 16C2.22387 16 2.00002 15.7762 2.00002 15.5V1.00002C2.00002 0.993544 2.00001 0.986977 2.00001 0.980325C1.99995 0.880388 1.99987 0.761403 2.01363 0.659075C2.03024 0.535552 2.07469 0.364683 2.21969 0.219687C2.36468 0.0746907 2.53555 0.0302357 2.65908 0.0136285C2.7614 -0.000129201 2.88039 -5.4338e-05 2.98033 8.66414e-06Z" fill="inherit"/>
        </symbol>
        <symbol  id="minus" viewBox="0 0 16 16">
            <path d="M15.5 8L0.5 8" stroke="inherit" stroke-linecap="round"/>
        </symbol>
        <symbol  id="plus" viewBox="0 0 16 16">
            <path d="M8 0.5L8 15.5M15.5 8L0.5 8" stroke="inherit" stroke-linecap="round"/>
        </symbol>
        <symbol  id="expand" viewBox="0 0 16 16" stroke="black">
            <path d="M15.5 10.5V15.5M15.5 15.5H10.5M15.5 15.5L10.8125 10.8125" stroke="inherit" stroke-linecap="round" stroke-linejoin="round"/>
            <path d="M0.5 10.5V15.5M0.5 15.5H5.5M0.5 15.5L5.1875 10.8125" stroke="inherit" stroke-linecap="round" stroke-linejoin="round"/>
            <path d="M15.5 5.5V0.5M15.5 0.5H10.5M15.5 0.5L10.8125 5.1875" stroke="inherit" stroke-linecap="round" stroke-linejoin="round"/>
            <path d="M0.5 5.5V0.5M0.5 0.5H5.5M0.5 0.5L5.1875 5.1875" stroke="inherit" stroke-linecap="round" stroke-linejoin="round"/>
        </symbol>
    </defs>
</svg>